<svg version="1.1" xmlns="http://www.w3.org/2000/svg" xmlns:xlink="http://www.w3.org/1999/xlink" width="168.28426" height="170.53824" viewBox="0,0,168.28426,170.53824"><g transform="translate(-155.85787,-94.73088)"><g data-paper-data="{&quot;isPaintingLayer&quot;:true}" fill-rule="nonzero" stroke-linecap="butt" stroke-linejoin="miter" stroke-miterlimit="10" stroke-dasharray="" stroke-dashoffset="0" style="mix-blend-mode: normal"><path d="M159.60787,180c0,-45.02177 35.99278,-81.51912 80.39213,-81.51912c44.39935,0 80.39213,36.49735 80.39213,81.51912c0,45.02177 -35.99278,81.51912 -80.39213,81.51912c-44.39935,0 -80.39213,-36.49735 -80.39213,-81.51912z" fill="#ffffff" stroke="#000000" stroke-width="7.5"/><path d="M222.49212,142.53275c1.25,-1.25 3.75,-1.25 5,0c1.25,1.25 2.5,5 2.5,7.5c0,2.5 -1.25,6.25 -2.5,7.5c-1.25,1.25 -3.75,1.25 -5,0c-1.25,-1.25 -2.5,-5 -2.5,-7.5c0,-2.5 1.25,-6.25 2.5,-7.5z" fill="#000001" stroke="none" stroke-width="1"/><path d="M242.49212,142.53275c1.25,-1.25 3.75,-1.25 5,0c1.25,1.25 2.5,5 2.5,7.5c0,2.5 -1.25,6.25 -2.5,7.5c-1.25,1.25 -3.75,1.25 -5,0c-1.25,-1.25 -2.5,-5 -2.5,-7.5c0,-2.5 1.25,-6.25 2.5,-7.5z" fill="#000001" stroke="none" stroke-width="1"/><path d="M202.49212,172.53275c0.83334,-0.83334 3.33635,-0.60019 5,0c1.66365,0.60019 3.17719,1.89818 4.9819,3.60117c1.80472,1.70298 3.9948,4.75682 5.84643,6.61673c1.85162,1.8599 3.19805,3.31388 5.26332,4.5427c2.06527,1.22882 4.50978,2.34528 7.1283,2.83022c2.61852,0.48493 5.95414,0.50445 8.58281,0.07935c2.62868,-0.4251 5.03895,-1.45734 7.18923,-2.62994c2.15028,-1.1726 3.8778,-2.73225 5.71248,-4.40563c1.83466,-1.67337 3.5796,-3.86217 5.29553,-5.6346c1.71593,-1.77243 3.33333,-4.16666 5,-5c1.66667,-0.83334 4.16667,-0.83334 5,0c0.83333,0.83334 0.57896,3.27088 0,5c-0.57896,1.72912 -1.96547,3.54263 -3.47376,5.37472c-1.50829,1.83208 -3.6926,3.85675 -5.57597,5.61778c-1.88337,1.76102 -3.7556,3.47798 -5.72425,4.94837c-1.96865,1.47038 -3.83836,2.83604 -6.08763,3.87396c-2.24927,1.03793 -4.73164,1.97962 -7.40797,2.35356c-2.67633,0.37393 -6.01967,0.32684 -8.65,-0.10996c-2.63032,-0.4368 -5.01505,-1.42365 -7.13193,-2.51082c-2.11688,-1.08717 -3.72041,-2.42716 -5.56935,-4.01218c-1.84894,-1.58502 -3.79448,-3.74204 -5.52433,-5.49794c-1.72986,-1.75591 -3.21233,-3.36457 -4.8548,-5.03749c-1.64247,-1.67292 -4.16666,-3.33334 -5,-5c-0.83334,-1.66666 -0.83334,-4.16666 0,-5z" fill="#000001" stroke="none" stroke-width="1"/></g></g></svg>